<?xml version="1.0" encoding="utf-8"?>
<!-- Generator: Adobe Illustrator 21.0.0, SVG Export Plug-In . SVG Version: 6.00 Build 0)  -->
<svg version="1.1" id="Layer_1" xmlns="http://www.w3.org/2000/svg" xmlns:xlink="http://www.w3.org/1999/xlink" x="0px" y="0px"
	 viewBox="0 0 512 512" style="enable-background:new 0 0 512 512;" xml:space="preserve">
<path d="M502,172.1L264.5,36.4c-5.2-3-11.7-3-16.9,0L8.6,172.9c-5.3,3-8.6,8.7-8.6,14.8c0,6.1,3.3,11.8,8.6,14.8l76.7,43.8v129.1
	c0,6.2,3.4,11.9,8.8,14.9L246,474.7c2.8,2,6.3,3.2,10,3.2c3.7,0,7.2-1.2,10-3.2l151.9-84.4c5.4-3,8.8-8.7,8.8-14.9V246.3l51.1-29.2
	v158.3c0,9.4,7.6,17.1,17.1,17.1s17.1-7.6,17.1-17V187.7C512,180.8,507.9,174.8,502,172.1z M119.5,265.9l119.4,68.2v97.7
	l-119.4-66.4V265.9z M392.5,365.4l-119.4,66.4V334l119.4-68.2V365.4z M256,304.6L51.5,187.7L256,70.9l204.5,116.9L256,304.6z"/>
</svg>
